<svg role="img" version="1.1" xmlns="http://www.w3.org/2000/svg" xmlns:xlink="http://www.w3.org/1999/xlink" x="0px" y="0px" viewBox="0 0 48 48" style="enable-background:new 0 0 48 48;" xml:space="preserve">
      <text>Lightbulb moment!</text>
<path d="M19,39v-1h-0.5c-0.3,0-0.5-0.2-0.5-0.5s0.2-0.5,0.5-0.5H19v-2h10v2h0.5c0.3,0,0.5,0.2,0.5,0.5S29.8,38,29.5,38H29v1h0.5
    c0.3,0,0.5,0.2,0.5,0.5S29.8,40,29.5,40H29c0,0-1.4,3-5,3s-5-3-5-3h-0.5c-0.3,0-0.5-0.2-0.5-0.5s0.2-0.5,0.5-0.5H19z M20,39h8v-1h-8
    V39z M20.2,40c0.2,0.3,0.4,0.5,0.7,0.8c0.8,0.8,1.9,1.2,3.2,1.2s2.3-0.5,3.2-1.2c0.3-0.2,0.5-0.5,0.7-0.8H20.2L20.2,40z M20,37h8v-1
    h-8V37z M16.1,7.8c-0.1-0.2,0-0.5,0.2-0.7c0.2-0.1,0.5,0,0.7,0.2l1.6,3.2c0.1,0.2,0,0.5-0.2,0.7c-0.2,0.1-0.5,0-0.7-0.2
    C17.7,11,16.1,7.8,16.1,7.8z M30.2,7.4c0.1-0.2,0.4-0.4,0.7-0.2c0.2,0.1,0.4,0.4,0.2,0.7L29.5,11c-0.1,0.2-0.4,0.4-0.7,0.2
    c-0.2-0.1-0.4-0.4-0.2-0.7C28.6,10.6,30.2,7.4,30.2,7.4z M23.1,6c0-0.3,0.2-0.5,0.5-0.5s0.5,0.2,0.5,0.5v3.2c0,0.3-0.2,0.5-0.5,0.5
    s-0.5-0.2-0.5-0.5V6z M10.8,11.9c-0.2-0.2-0.2-0.5,0-0.7c0.2-0.2,0.5-0.2,0.7,0l2.3,2.4c0.2,0.2,0.2,0.5,0,0.7
    c-0.2,0.2-0.5,0.2-0.7,0C13.1,14.3,10.8,11.9,10.8,11.9z M7.9,17.7c-0.3-0.1-0.4-0.3-0.4-0.6c0.1-0.3,0.3-0.4,0.6-0.4c0,0,0,0,0,0
    l3.1,0.8c0.3,0.1,0.4,0.3,0.4,0.6c-0.1,0.3-0.3,0.4-0.6,0.4c0,0,0,0,0,0C11,18.5,7.9,17.7,7.9,17.7z M39.7,17.7l-3.1,0.8
    c-0.3,0.1-0.5-0.1-0.6-0.4c-0.1-0.3,0.1-0.5,0.3-0.6l3.1-0.8c0.3-0.1,0.5,0.1,0.6,0.4C40.1,17.4,40,17.6,39.7,17.7z M35.7,11.3
    c0.2-0.2,0.5-0.2,0.7,0c0.2,0.2,0.2,0.5,0,0.7c0,0,0,0,0,0l-2.3,2.4c-0.2,0.2-0.5,0.2-0.7,0c-0.2-0.2-0.2-0.5,0-0.7c0,0,0,0,0,0
    L35.7,11.3z M18.8,34c0-5.5-4.8-5.5-4.8-12.6c0-5,4.5-9.4,10-9.4s10,4.4,10,9.4c0,7.1-4.8,7.1-4.8,12.6H18.8z M28.2,33
    c0.2-1.8,0.8-3,2.1-4.7l0.4-0.6c1.6-2.1,2.2-3.5,2.2-6.3c0-4.5-4.1-8.4-9-8.4s-9,3.9-9,8.4c0,2.7,0.6,4.2,2.2,6.3l0.4,0.6
    c1.3,1.7,1.9,3,2.1,4.7C19.8,33,28.2,33,28.2,33z M21.4,15.9c0.3-0.1,0.5,0.1,0.6,0.3c0.1,0.2,0,0.5-0.3,0.6c-1.8,0.7-3.2,2.2-3.9,4
    c-0.1,0.3-0.4,0.4-0.6,0.3c-0.2-0.1-0.4-0.4-0.3-0.6C17.6,18.4,19.3,16.7,21.4,15.9z"/>
</svg>
